<svg xmlns="http://www.w3.org/2000/svg" xmlns:xlink="http://www.w3.org/1999/xlink" width="500" zoomAndPan="magnify" viewBox="0 0 375 374.999991" height="500" preserveAspectRatio="xMidYMid meet" version="1.0"><defs><filter x="0%" y="0%" width="100%" height="100%" id="b31188e8c1"><feColorMatrix values="0 0 0 0 1 0 0 0 0 1 0 0 0 0 1 0 0 0 1 0" color-interpolation-filters="sRGB"/></filter><clipPath id="82ce8d1d8c"><path d="M 49 88.25 L 370 88.25 L 370 331.527344 L 49 331.527344 Z M 49 88.25 " clip-rule="nonzero"/></clipPath><clipPath id="c4a87e4391"><path d="M 136.15625 88.25 L 364.4375 88.25 C 366.175781 88.25 367.804688 89.085938 368.820312 90.496094 C 369.835938 91.90625 370.113281 93.71875 369.566406 95.367188 L 293.214844 324.414062 C 291.800781 328.664062 287.824219 331.527344 283.34375 331.527344 L 55.066406 331.527344 C 53.328125 331.527344 51.695312 330.695312 50.679688 329.285156 C 49.664062 327.875 49.386719 326.0625 49.9375 324.414062 L 126.285156 95.367188 C 127.703125 91.117188 131.679688 88.25 136.15625 88.25 " clip-rule="nonzero"/></clipPath><mask id="a7983d82ba"><g filter="url(#b31188e8c1)"><rect x="-37.5" width="450" fill="#000000" y="-37.499999" height="449.999989" fill-opacity="0.8"/></g></mask><clipPath id="3f166fa57a"><path d="M 3 0.472656 L 324 0.472656 L 324 243.75 L 3 243.75 Z M 3 0.472656 " clip-rule="nonzero"/></clipPath><clipPath id="68bbf32b57"><path d="M 89.65625 0.472656 L 317.933594 0.472656 C 319.671875 0.472656 321.304688 1.304688 322.320312 2.714844 C 323.335938 4.125 323.613281 5.9375 323.0625 7.585938 L 246.714844 236.632812 C 245.296875 240.882812 241.320312 243.75 236.84375 243.75 L 8.5625 243.75 C 6.824219 243.75 5.195312 242.914062 4.179688 241.503906 C 3.164062 240.09375 2.886719 238.28125 3.433594 236.632812 L 79.785156 7.585938 C 81.199219 3.335938 85.175781 0.472656 89.65625 0.472656 " clip-rule="nonzero"/></clipPath><clipPath id="d378a3c4b0"><rect x="0" width="326" y="0" height="244"/></clipPath></defs><g clip-path="url(#82ce8d1d8c)"><g clip-path="url(#c4a87e4391)"><path fill="#0558ee" d="M 47.566406 88.25 L 371.9375 88.25 L 371.9375 331.527344 L 47.566406 331.527344 Z M 47.566406 88.25 " fill-opacity="1" fill-rule="nonzero"/></g></g><g mask="url(#a7983d82ba)"><g transform="matrix(1, 0, 0, 1, 2, 43)"><g clip-path="url(#d378a3c4b0)"><g clip-path="url(#3f166fa57a)"><g clip-path="url(#68bbf32b57)"><path fill="#21e8e6" d="M 1.0625 0.472656 L 325.433594 0.472656 L 325.433594 243.75 L 1.0625 243.75 Z M 1.0625 0.472656 " fill-opacity="1" fill-rule="nonzero"/></g></g></g></g></g></svg>